<?xml version="1.0" encoding="UTF-8" standalone="no"?>
<svg
   xmlns:dc="http://purl.org/dc/elements/1.1/"
   xmlns:cc="http://creativecommons.org/ns#"
   xmlns:rdf="http://www.w3.org/1999/02/22-rdf-syntax-ns#"
   xmlns:svg="http://www.w3.org/2000/svg"
   xmlns="http://www.w3.org/2000/svg"
   xmlns:sodipodi="http://sodipodi.sourceforge.net/DTD/sodipodi-0.dtd"
   xmlns:inkscape="http://www.inkscape.org/namespaces/inkscape"
   version="1.1"
   width="90"
   height="90"
   x="0"
   y="0"
   viewBox="0 0 90 90"
   xml:space="preserve"
   class=""
   id="svg50"
   sodipodi:docname="usuario.svg"
   inkscape:version="1.0.1 (3bc2e813f5, 2020-09-07)"><metadata
     id="metadata56"><rdf:RDF><cc:Work
         rdf:about=""><dc:format>image/svg+xml</dc:format><dc:type
           rdf:resource="http://purl.org/dc/dcmitype/StillImage" /><dc:title></dc:title></cc:Work></rdf:RDF></metadata><defs
     id="defs54" /><sodipodi:namedview
     pagecolor="#ffffff"
     bordercolor="#666666"
     borderopacity="1"
     objecttolerance="10"
     gridtolerance="10"
     guidetolerance="10"
     inkscape:pageopacity="0"
     inkscape:pageshadow="2"
     inkscape:window-width="1920"
     inkscape:window-height="986"
     id="namedview52"
     showgrid="false"
     inkscape:zoom="1.1039267"
     inkscape:cx="256"
     inkscape:cy="232.66013"
     inkscape:window-x="-11"
     inkscape:window-y="-11"
     inkscape:window-maximized="1"
     inkscape:current-layer="svg50" /><g
     id="g48"
     transform="matrix(0.13698731,0,0,0.09197852,9.9057487,23.368)"><g
       id="g46"><g
         id="g40"><path
           d="m 433,512 c -11.046,0 -20,-8.954 -20,-20 0,-78.299 -63.701,-142 -142,-142 h -30 c -78.299,0 -142,63.701 -142,142 0,11.046 -8.954,20 -20,20 -11.046,0 -20,-8.954 -20,-20 0,-100.355 81.645,-182 182,-182 h 30 c 100.355,0 182,81.645 182,182 0,11.046 -8.954,20 -20,20 z"
           fill="#4385f4"
           data-original="#000000"
           class=""
           id="path38" /></g><g
         id="g44"><path
           d="M 254,270 C 179.561,270 119,209.439 119,135 119,60.561 179.561,0 254,0 c 74.439,0 135,60.561 135,135 0,74.439 -60.561,135 -135,135 z m 0,-230 c -52.383,0 -95,42.617 -95,95 0,52.383 42.617,95 95,95 52.383,0 95,-42.617 95,-95 0,-52.383 -42.617,-95 -95,-95 z"
           fill="#4385f4"
           data-original="#000000"
           class=""
           id="path42" /></g></g></g></svg>
